<?xml version="1.0" encoding="UTF-8"?>
<svg xmlns="http://www.w3.org/2000/svg" xmlns:xlink="http://www.w3.org/1999/xlink" width="165pt" height="82.499998pt" viewBox="0 0 165 82.499998" version="1.2">
<defs>
<clipPath id="clip1">
  <path d="M 0.496094 0 L 164.503906 0 L 164.503906 82.003906 L 0.496094 82.003906 Z M 0.496094 0 "/>
</clipPath>
<clipPath id="clip2">
  <path d="M 87 57 L 101 57 L 101 77.359375 L 87 77.359375 Z M 87 57 "/>
</clipPath>
<clipPath id="clip3">
  <path d="M 102 57 L 118.027344 57 L 118.027344 77.359375 L 102 77.359375 Z M 102 57 "/>
</clipPath>
<clipPath id="clip4">
  <path d="M 62 62 L 76 62 L 76 77.359375 L 62 77.359375 Z M 62 62 "/>
</clipPath>
<clipPath id="clip5">
  <path d="M 47.207031 61 L 61 61 L 61 77.359375 L 47.207031 77.359375 Z M 47.207031 61 "/>
</clipPath>
<clipPath id="clip6">
  <path d="M 77 58 L 86 58 L 86 77.359375 L 77 77.359375 Z M 77 58 "/>
</clipPath>
<clipPath id="clip7">
  <path d="M 62 3.917969 L 105 3.917969 L 105 51 L 62 51 Z M 62 3.917969 "/>
</clipPath>
</defs>
<g id="surface1">
<g clip-path="url(#clip1)" clip-rule="nonzero">
<path style=" stroke:none;fill-rule:nonzero;fill:rgb(100%,100%,100%);fill-opacity:1;" d="M 0.496094 0 L 164.503906 0 L 164.503906 89.457031 L 0.496094 89.457031 Z M 0.496094 0 "/>
<path style=" stroke:none;fill-rule:nonzero;fill:rgb(100%,100%,100%);fill-opacity:1;" d="M 0.496094 0 L 164.503906 0 L 164.503906 82.003906 L 0.496094 82.003906 Z M 0.496094 0 "/>
<path style=" stroke:none;fill-rule:nonzero;fill:rgb(100%,100%,100%);fill-opacity:1;" d="M 0.496094 0 L 164.503906 0 L 164.503906 82.003906 L 0.496094 82.003906 Z M 0.496094 0 "/>
</g>
<g clip-path="url(#clip2)" clip-rule="nonzero">
<path style=" stroke:none;fill-rule:nonzero;fill:rgb(100%,30.979919%,25.099182%);fill-opacity:1;" d="M 95.792969 61.988281 C 93.480469 61.988281 92.007812 63.019531 91.3125 64.699219 L 91.136719 64.699219 L 91.136719 57.070312 L 87.667969 57.070312 L 87.667969 77.015625 L 91.214844 77.015625 L 91.214844 68.359375 C 91.214844 66.21875 92.566406 64.984375 94.46875 64.984375 C 96.332031 64.984375 97.429688 66.152344 97.429688 68.148438 L 97.429688 77.015625 L 100.976562 77.015625 L 100.976562 67.566406 C 100.976562 63.984375 98.921875 61.988281 95.792969 61.988281 Z M 95.792969 61.988281 "/>
</g>
<g clip-path="url(#clip3)" clip-rule="nonzero">
<path style=" stroke:none;fill-rule:nonzero;fill:rgb(100%,30.979919%,25.099182%);fill-opacity:1;" d="M 110.570312 57.039062 C 105.769531 57.039062 102.878906 60.734375 102.867188 67.164062 C 102.867188 73.609375 105.75 77.355469 110.570312 77.355469 C 115.394531 77.367188 118.273438 73.621094 118.273438 67.164062 C 118.273438 60.746094 115.375 57.039062 110.570312 57.039062 Z M 106.53125 67.164062 C 106.539062 62.476562 108.09375 60.007812 110.570312 60.007812 C 112.265625 60.007812 113.527344 61.152344 114.160156 63.359375 L 106.59375 68.769531 C 106.550781 68.269531 106.527344 67.734375 106.53125 67.164062 Z M 110.570312 74.351562 C 108.820312 74.351562 107.53125 73.132812 106.917969 70.765625 L 114.527344 65.324219 C 114.585938 65.894531 114.621094 66.507812 114.621094 67.164062 C 114.625 71.890625 113.070312 74.351562 110.570312 74.351562 Z M 110.570312 74.351562 "/>
</g>
<g clip-path="url(#clip4)" clip-rule="nonzero">
<path style=" stroke:none;fill-rule:nonzero;fill:rgb(100%,30.979919%,25.099182%);fill-opacity:1;" d="M 71.695312 70.785156 C 71.695312 73.042969 70.058594 74.164062 68.492188 74.164062 C 66.785156 74.164062 65.648438 72.976562 65.648438 71.09375 L 65.648438 62.199219 L 62.101562 62.199219 L 62.101562 71.636719 C 62.101562 75.195312 64.160156 77.210938 67.121094 77.210938 C 69.375 77.210938 70.960938 76.042969 71.648438 74.382812 L 71.804688 74.382812 L 71.804688 77.019531 L 75.246094 77.019531 L 75.246094 62.199219 L 71.695312 62.199219 Z M 71.695312 70.785156 "/>
</g>
<g clip-path="url(#clip5)" clip-rule="nonzero">
<path style=" stroke:none;fill-rule:nonzero;fill:rgb(100%,30.979919%,25.099182%);fill-opacity:1;" d="M 54.078125 61.976562 C 50.914062 61.976562 48.480469 63.363281 47.699219 66.066406 L 51.011719 66.527344 C 51.363281 65.515625 52.363281 64.644531 54.097656 64.644531 C 55.742188 64.644531 56.644531 65.476562 56.644531 66.933594 L 56.644531 66.988281 C 56.644531 67.992188 55.578125 68.042969 52.921875 68.320312 C 50 68.628906 47.207031 69.488281 47.207031 72.828125 C 47.207031 75.738281 49.375 77.28125 52.246094 77.28125 C 54.605469 77.28125 56.019531 76.195312 56.664062 74.949219 L 56.78125 74.949219 L 56.78125 76.984375 L 60.191406 76.984375 L 60.191406 67.070312 C 60.191406 63.152344 56.949219 61.976562 54.078125 61.976562 Z M 56.65625 71.667969 C 56.65625 73.320312 55.300781 74.71875 53.167969 74.71875 C 51.6875 74.71875 50.628906 74.050781 50.628906 72.769531 C 50.628906 71.429688 51.8125 70.867188 53.402344 70.644531 C 54.332031 70.519531 56.195312 70.289062 56.65625 69.921875 Z M 56.65625 71.667969 "/>
</g>
<g clip-path="url(#clip6)" clip-rule="nonzero">
<path style=" stroke:none;fill-rule:nonzero;fill:rgb(100%,30.979919%,25.099182%);fill-opacity:1;" d="M 82.820312 58.496094 L 79.273438 58.496094 L 79.273438 62.207031 L 77.117188 62.207031 L 77.117188 64.980469 L 79.273438 64.980469 L 79.273438 73.183594 C 79.253906 75.972656 81.3125 77.34375 83.976562 77.265625 C 84.777344 77.246094 85.375 77.117188 85.78125 77.003906 L 85.78125 74.238281 C 85.511719 74.273438 84.882812 74.351562 84.429688 74.363281 C 83.535156 74.382812 82.820312 74.054688 82.820312 72.648438 L 82.820312 64.980469 L 85.789062 64.980469 L 85.789062 62.207031 L 82.820312 62.207031 Z M 82.820312 58.496094 "/>
</g>
<g clip-path="url(#clip7)" clip-rule="nonzero">
<path style=" stroke:none;fill-rule:nonzero;fill:rgb(100%,30.979919%,25.099182%);fill-opacity:1;" d="M 98.472656 3.917969 L 83.230469 3.917969 L 87.941406 18.367188 L 103.183594 18.367188 L 90.851562 26.984375 L 95.5625 41.515625 C 103.5 35.824219 106.09375 27.207031 103.183594 18.367188 Z M 63.273438 18.367188 L 78.519531 18.367188 L 83.230469 3.917969 L 67.984375 3.917969 L 63.273438 18.367188 C 60.363281 27.207031 62.957031 35.820312 70.898438 41.515625 L 75.609375 26.984375 Z M 70.898438 41.511719 L 83.230469 50.109375 L 95.5625 41.511719 L 83.230469 32.769531 Z M 70.898438 41.511719 "/>
</g>
</g>
</svg>
