<?xml version="1.0" encoding="UTF-8"?>
<svg xmlns="http://www.w3.org/2000/svg" xmlns:xlink="http://www.w3.org/1999/xlink" width="165pt" height="82.499998pt" viewBox="0 0 165 82.499998" version="1.2">
<defs>
<clipPath id="clip1">
  <path d="M 0.496094 0 L 164.503906 0 L 164.503906 82.003906 L 0.496094 82.003906 Z M 0.496094 0 "/>
</clipPath>
<clipPath id="clip2">
  <path d="M 112 30 L 156.300781 30 L 156.300781 53.316406 L 112 53.316406 Z M 112 30 "/>
</clipPath>
<clipPath id="clip3">
  <path d="M 48 28.714844 L 111 28.714844 L 111 53.316406 L 48 53.316406 Z M 48 28.714844 "/>
</clipPath>
<clipPath id="clip4">
  <path d="M 8.699219 33 L 24 33 L 24 53.316406 L 8.699219 53.316406 Z M 8.699219 33 "/>
</clipPath>
<clipPath id="clip5">
  <path d="M 28 33 L 44 33 L 44 53.316406 L 28 53.316406 Z M 28 33 "/>
</clipPath>
</defs>
<g id="surface1">
<g clip-path="url(#clip1)" clip-rule="nonzero">
<path style=" stroke:none;fill-rule:nonzero;fill:rgb(100%,100%,100%);fill-opacity:1;" d="M 0.496094 0 L 164.503906 0 L 164.503906 82.003906 L 0.496094 82.003906 Z M 0.496094 0 "/>
<path style=" stroke:none;fill-rule:nonzero;fill:rgb(100%,100%,100%);fill-opacity:1;" d="M 0.496094 0 L 164.503906 0 L 164.503906 82.003906 L 0.496094 82.003906 Z M 0.496094 0 "/>
</g>
<g clip-path="url(#clip2)" clip-rule="nonzero">
<path style=" stroke:none;fill-rule:nonzero;fill:rgb(22.749329%,14.118958%,58.81958%);fill-opacity:1;" d="M 150.738281 53.195312 C 152.605469 53.195312 154.359375 52.46875 155.769531 51.667969 L 154.550781 48.535156 C 153.558594 49.109375 152.339844 49.566406 150.929688 49.566406 C 147.234375 49.566406 146.511719 46.929688 146.511719 43.183594 C 146.511719 39.441406 146.96875 36.5 149.519531 36.5 C 151.691406 36.5 152.53125 39.210938 152.1875 43.183594 L 153.445312 41.582031 L 145.328125 41.582031 L 145.253906 44.253906 L 156.1875 44.253906 C 156.722656 36.765625 154.4375 33.175781 149.367188 33.175781 C 144.300781 33.175781 142.167969 37.148438 142.167969 43.183594 C 142.167969 49.222656 144.71875 53.195312 150.738281 53.195312 Z M 134.851562 53.195312 C 136.71875 53.195312 138.472656 52.46875 139.882812 51.667969 L 138.664062 48.535156 C 137.671875 49.109375 136.453125 49.566406 135.042969 49.566406 C 131.347656 49.566406 130.621094 46.929688 130.621094 43.183594 C 130.621094 39.441406 131.082031 36.5 133.632812 36.5 C 135.804688 36.5 136.644531 39.210938 136.300781 43.183594 L 137.558594 41.582031 L 129.441406 41.582031 L 129.367188 44.253906 L 140.300781 44.253906 C 140.832031 36.765625 138.546875 33.175781 133.480469 33.175781 C 128.414062 33.175781 126.28125 37.148438 126.28125 43.183594 C 126.28125 49.222656 128.832031 53.195312 134.851562 53.195312 Z M 117.859375 53.195312 C 121.785156 53.195312 124.71875 51.210938 124.71875 46.625 C 124.71875 43.300781 122.699219 41.046875 119.574219 39.097656 C 117.628906 37.875 116.984375 36.996094 116.984375 35.886719 C 116.984375 34.550781 118.125 33.746094 119.535156 33.746094 C 120.714844 33.746094 121.746094 33.976562 122.773438 34.664062 L 124.070312 31.378906 C 122.773438 30.460938 121.402344 30.078125 119.574219 30.042969 C 115.6875 29.964844 112.601562 32.296875 112.601562 36.230469 C 112.601562 39.097656 114.164062 40.550781 117.171875 42.652344 C 119.191406 44.0625 120.375 45.058594 120.375 46.625 C 120.375 48.382812 119.117188 49.375 117.171875 49.375 C 115.839844 49.375 114.46875 48.726562 113.402344 48.191406 L 112.066406 51.746094 C 113.402344 52.507812 115.648438 53.195312 117.859375 53.195312 Z M 117.859375 53.195312 "/>
</g>
<g clip-path="url(#clip3)" clip-rule="nonzero">
<path style=" stroke:none;fill-rule:nonzero;fill:rgb(0.779724%,7.839966%,26.269531%);fill-opacity:1;" d="M 90.3125 50.40625 L 91.1875 49.109375 C 90.578125 49.335938 89.855469 49.566406 88.941406 49.566406 C 85.738281 49.566406 84.636719 46.929688 84.636719 43.183594 C 84.636719 39.441406 85.359375 36.5 88.40625 36.5 C 89.09375 36.5 90.3125 36.382812 91.378906 37.683594 L 90.3125 36.039062 Z M 88.828125 53.195312 C 90.691406 53.195312 92.675781 52.890625 94.425781 52.050781 L 94.425781 28.714844 L 90.3125 29.480469 L 90.3125 34.398438 L 92.332031 34.472656 C 91.1875 33.632812 89.703125 33.175781 87.910156 33.175781 C 82.84375 33.175781 80.292969 37.148438 80.292969 43.183594 C 80.292969 49.222656 82.804688 53.195312 88.828125 53.195312 Z M 105.019531 53.195312 C 106.886719 53.195312 108.640625 52.46875 110.046875 51.667969 L 108.828125 48.535156 C 107.839844 49.109375 106.621094 49.566406 105.210938 49.566406 C 101.515625 49.566406 100.789062 46.929688 100.789062 43.183594 C 100.789062 39.441406 101.246094 36.5 103.800781 36.5 C 105.972656 36.5 106.808594 39.210938 106.46875 43.183594 L 107.722656 41.582031 L 99.609375 41.582031 L 99.53125 44.253906 L 110.46875 44.253906 C 111 36.765625 108.714844 33.175781 103.648438 33.175781 C 98.578125 33.175781 96.445312 37.148438 96.445312 43.183594 C 96.445312 49.222656 99 53.195312 105.019531 53.195312 Z M 70.917969 49.566406 C 68.367188 49.566406 67.640625 46.929688 67.640625 43.183594 C 67.640625 39.441406 68.367188 36.5 70.917969 36.5 C 73.472656 36.5 74.195312 39.441406 74.195312 43.183594 C 74.195312 46.929688 73.472656 49.566406 70.917969 49.566406 Z M 70.917969 53.195312 C 75.984375 53.195312 78.539062 49.222656 78.539062 43.183594 C 78.539062 37.148438 75.984375 33.175781 70.917969 33.175781 C 65.851562 33.175781 63.296875 37.148438 63.296875 43.183594 C 63.296875 49.222656 65.851562 53.195312 70.917969 53.195312 Z M 57.355469 53.195312 C 59.140625 53.199219 60.886719 52.679688 62.382812 51.707031 L 61.089844 48.230469 C 60.097656 48.839844 58.992188 49.300781 57.773438 49.300781 C 54.34375 49.300781 52.746094 45.9375 52.746094 41.464844 C 52.746094 36.652344 54.6875 33.976562 57.925781 33.976562 C 58.957031 33.976562 60.023438 34.398438 60.859375 34.855469 L 62.230469 31.457031 C 60.9375 30.578125 59.488281 30.042969 57.355469 30.042969 C 51.792969 30.042969 48.097656 34.511719 48.097656 41.65625 C 48.097656 49.796875 52.554688 53.195312 57.355469 53.195312 Z M 57.355469 53.195312 "/>
</g>
<g clip-path="url(#clip4)" clip-rule="nonzero">
<path style=" stroke:none;fill-rule:nonzero;fill:rgb(22.749329%,14.118958%,58.81958%);fill-opacity:1;" d="M 22.105469 33.203125 C 18.246094 34.867188 13.558594 38.488281 8.867188 43.105469 C 13.558594 47.726562 18.289062 51.386719 22.148438 53.054688 L 23.683594 49.101562 C 21.277344 48.058594 18.121094 45.894531 15.050781 43.148438 C 18.121094 40.402344 21.277344 38.195312 23.683594 37.238281 Z M 22.105469 33.203125 "/>
</g>
<g clip-path="url(#clip5)" clip-rule="nonzero">
<path style=" stroke:none;fill-rule:nonzero;fill:rgb(0.779724%,7.839966%,26.269531%);fill-opacity:1;" d="M 30.15625 33.203125 L 28.578125 37.238281 C 30.984375 38.195312 34.140625 40.402344 37.210938 43.148438 C 34.140625 45.894531 30.984375 48.058594 28.578125 49.101562 L 30.113281 53.054688 C 33.972656 51.386719 38.703125 47.726562 43.394531 43.105469 C 38.703125 38.488281 34.015625 34.867188 30.15625 33.203125 Z M 30.15625 33.203125 "/>
</g>
<path style=" stroke:none;fill-rule:nonzero;fill:rgb(0.779724%,7.839966%,26.269531%);fill-opacity:1;" d="M 26.132812 46.519531 C 27.941406 46.519531 29.410156 45.046875 29.410156 43.230469 C 29.410156 41.417969 27.941406 39.945312 26.132812 39.945312 C 24.320312 39.945312 22.851562 41.417969 22.851562 43.230469 C 22.851562 45.046875 24.320312 46.519531 26.132812 46.519531 Z M 26.132812 46.519531 "/>
</g>
</svg>
